<svg id="圖層_1" data-name="圖層 1" xmlns="http://www.w3.org/2000/svg" viewBox="0 0 200 200"><defs><style>.cls-1{fill:#ff883e;}.cls-2{fill:none;stroke:#fff;stroke-linecap:round;stroke-linejoin:round;stroke-width:4px;}.cls-3{fill:#fff;}</style></defs><circle class="cls-1" cx="100" cy="100" r="100"/><path class="cls-2" d="M100,100.8V44.14l16.67,22.22"/><path class="cls-3" d="M82.22,125h-11V155.4H66.78V125h-11v-3.68H82.22Z"/><path class="cls-3" d="M112.88,139.43a21,21,0,0,1-1.69,8.76,12.82,12.82,0,0,1-4.78,5.71,13.21,13.21,0,0,1-19.21-5.66,20.24,20.24,0,0,1-1.77-8.5v-2.46a20.91,20.91,0,0,1,1.71-8.7A13.12,13.12,0,0,1,92,122.81a13,13,0,0,1,7.16-2,13.26,13.26,0,0,1,7.24,2,12.79,12.79,0,0,1,4.81,5.74,21.16,21.16,0,0,1,1.69,8.76Zm-4.48-2.2q0-6.07-2.44-9.31a8.67,8.67,0,0,0-13.53,0q-2.45,3.24-2.52,9v2.5q0,5.9,2.47,9.25a8.67,8.67,0,0,0,13.56.19c1.6-2.12,2.42-5.15,2.46-9.11Z"/><path class="cls-3" d="M124.13,142V155.4h-4.5V121.27h12.58q5.61,0,8.78,2.86a9.69,9.69,0,0,1,3.18,7.57,9.57,9.57,0,0,1-3.11,7.65Q138,142,132.17,142Zm0-3.68h8.08a8.09,8.09,0,0,0,5.54-1.71,6.21,6.21,0,0,0,1.92-4.91,6.44,6.44,0,0,0-1.92-4.89,7.61,7.61,0,0,0-5.28-1.9h-8.34Z"/></svg>