<svg id="圖層_1" data-name="圖層 1" xmlns="http://www.w3.org/2000/svg" viewBox="0 0 200 200"><defs><style>.cls-1{fill:#ff883e;}</style></defs><path class="cls-1" d="M110,111.41C7.93,111.41,0,93.31,0,87.76c0-9.1,18.85-14,21-14.5a2,2,0,0,1,1,3.88C14.5,79,4,83.48,4,87.76c0,2.91,5,7.72,19.16,11.71,18.69,5.27,47.91,7.94,86.84,7.94a2,2,0,0,1,0,4Z"/><path class="cls-1" d="M102.69,132.74a2,2,0,0,1,0-4c76.19-1.19,93.34-14.93,93.34-19.66,0-4.28-10.5-8.78-18-10.61a2,2,0,0,1,1-3.88c2.15.52,21,5.4,21,14.49,0,10.22-25.48,22.54-97.28,23.66Z"/><path class="cls-1" d="M100,152.19a2.19,2.19,0,0,1-.67-.11,103.91,103.91,0,0,1-41.37-26.92,2,2,0,0,1,3-2.7A99.65,99.65,0,0,0,100,148.07a102.78,102.78,0,0,0,11.33-4.87,2,2,0,1,1,1.8,3.57,105.13,105.13,0,0,1-12.47,5.31A2.12,2.12,0,0,1,100,152.19Z"/><path class="cls-1" d="M135.05,131.28a2,2,0,0,1-1.35-3.48c14.55-13.35,22.89-29.38,22.89-44,0-31.1-27-32-30.12-32-12.93,0-25,12.13-25.07,12.25a2,2,0,0,1-1.43.6h0a2,2,0,0,1-1.43-.6c-.12-.12-12.18-12.25-25.07-12.25-3.09,0-30.13.9-30.13,32a48.22,48.22,0,0,0,5.48,21.4A2,2,0,1,1,45.24,107a52.15,52.15,0,0,1-5.9-23.18c0-24.87,17.14-36,34.13-36,12,0,22.71,8.66,26.5,12.09,3.79-3.43,14.54-12.09,26.5-12.09,17,0,34.12,11.13,34.12,36,0,15.72-8.82,32.83-24.19,46.94A2,2,0,0,1,135.05,131.28Z"/></svg>