<svg id="圖層_1" data-name="圖層 1" xmlns="http://www.w3.org/2000/svg" viewBox="0 0 200 200"><defs><style>.cls-1{fill:#ff883e;}</style></defs><path class="cls-1" d="M104.13,121.22a1.87,1.87,0,0,1-.66-.11c-39.79-14-69.8-48.13-69.8-79.41C33.67,12.89,53.52,0,73.19,0,87.28,0,100,10.42,104.13,14.24,108.31,10.42,121,0,135.08,0c19.67,0,39.51,12.89,39.51,41.7,0,31.28-30,65.42-69.79,79.41A1.92,1.92,0,0,1,104.13,121.22ZM73.19,4C56.8,4,37.67,13.87,37.67,41.7c0,29.5,28.53,61.81,66.46,75.4,37.94-13.59,66.46-45.9,66.46-75.4,0-27.83-19.13-37.7-35.51-37.7-15.24,0-29.38,14.26-29.52,14.4a2,2,0,0,1-1.43.6h0a2,2,0,0,1-1.42-.6C102.56,18.26,88.39,4,73.19,4Z"/><path class="cls-1" d="M63.81,64.33a2,2,0,0,1-1.71-.95c-7.63-12.46-9.72-22.94-6.2-31.16,4.43-10.37,16.06-13,16.55-13.11A2,2,0,0,1,73.3,23c-.16,0-10.15,2.36-13.74,10.8-3,7-1,16.2,6,27.47A2,2,0,0,1,64.85,64,2,2,0,0,1,63.81,64.33Z"/><path class="cls-1" d="M104.13,200c-22.27,0-30.12-4.37-37.71-8.59-6.79-3.78-13.21-7.35-30.75-7.35a39,39,0,0,0-15.36,3.54A2,2,0,0,1,18.52,184a42.53,42.53,0,0,1,17.15-4c18.58,0,25.76,4,32.69,7.85,7.15,4,14.54,8.09,35.77,8.09,41.42,0,65.87-25.42,73.9-33.77,8.66-9,14.74-22.26,11.61-25.32-3.46-3.38-12.12.85-18.48,6.9-.67.63-1.28,1.22-1.87,1.79-5,4.87-8.06,7.82-24.24,16.05-18.27,9.29-42.26,3.53-43.27,3.28a2,2,0,0,1,.28-3.93c34.46-3.42,34.46-10.76,34.46-19.27,0-3.09-.92-3.83-1.23-4.07-2.16-1.74-8.36-.38-16.21,1.34-1.81.4-3.74.83-5.79,1.25l-.23,0c-9.18.81-17.84-.74-26.22-2.23-6.43-1.15-12.51-2.23-18.31-2.14-17.3,0-59.88,15.35-60.31,15.51a2,2,0,0,1-1.36-3.76c1.77-.65,43.67-15.75,61.64-15.75,6.15-.1,12.42,1,19,2.2,8.08,1.44,16.44,2.93,25,2.19,2-.41,3.87-.82,5.64-1.21,9.58-2.11,15.91-3.5,19.57-.56,1.83,1.47,2.72,3.82,2.72,7.19,0,5.43-.45,10.65-5.91,14.8-3.52,2.68-9.05,4.75-17,6.32,7.83.23,17.47-.62,25.63-4.77,15.64-8,18.51-10.74,23.27-15.35.59-.58,1.22-1.18,1.89-1.82,7.59-7.21,18.34-12.43,24-6.86,6.57,6.41-4.45,23.6-11.52,30.95a119.74,119.74,0,0,1-25.18,20.57A98.77,98.77,0,0,1,104.13,200Z"/><circle class="cls-1" cx="69.55" cy="70.87" r="2"/></svg>