<svg id="圖層_1" data-name="圖層 1" xmlns="http://www.w3.org/2000/svg" viewBox="0 0 200 200"><defs><style>.cls-1{fill:#ff883e;}</style></defs><path class="cls-1" d="M47.7,200a2,2,0,0,1-1.41-.59L.59,153.71a2,2,0,0,1,0-2.83L150.88.59a2,2,0,0,1,2.83,0l45.7,45.7a2,2,0,0,1,0,2.83L49.12,199.41A2,2,0,0,1,47.7,200ZM4.83,152.3,47.7,195.17,195.17,47.7,152.3,4.83Z"/><path class="cls-1" d="M32.21,152.5a2,2,0,0,1-1.42-.58l-14.2-14.21a2,2,0,0,1,2.83-2.83l14.2,14.21a2,2,0,0,1,0,2.83A2,2,0,0,1,32.21,152.5Z"/><path class="cls-1" d="M55.85,128.86a2,2,0,0,1-1.41-.59L40.23,114.06a2,2,0,0,1,2.83-2.82l14.21,14.2a2,2,0,0,1-1.42,3.42Z"/><path class="cls-1" d="M79.5,105.21a2,2,0,0,1-1.42-.59l-14.2-14.2a2,2,0,1,1,2.83-2.83l14.2,14.21a2,2,0,0,1,0,2.82A2,2,0,0,1,79.5,105.21Z"/><path class="cls-1" d="M103.14,81.57a2,2,0,0,1-1.41-.59L87.52,66.77A2,2,0,0,1,90.35,64l14.21,14.2a2,2,0,0,1-1.42,3.42Z"/><path class="cls-1" d="M126.79,57.92a2,2,0,0,1-1.41-.59l-14.21-14.2A2,2,0,0,1,114,40.3l14.2,14.21a2,2,0,0,1,0,2.82A2,2,0,0,1,126.79,57.92Z"/><path class="cls-1" d="M150.43,34.28a2,2,0,0,1-1.41-.59L134.81,19.48a2,2,0,1,1,2.83-2.82l14.21,14.2a2,2,0,0,1-1.42,3.42Z"/></svg>