<svg id="圖層_1" data-name="圖層 1" xmlns="http://www.w3.org/2000/svg" viewBox="0 0 200 200"><defs><style>.cls-1{fill:#ff883e;}</style></defs><path class="cls-1" d="M16.79,200a2,2,0,0,1-1.87-1.29C6.54,176.69,11.05,146,27,116.56q1.44-2.66,2.8-5.13C41.29,90.4,48.22,77.71,48.22,48c0-24.57-10.3-44.85-10.41-45a2,2,0,0,1,3.56-1.84A112.17,112.17,0,0,1,52.22,48c0,30.76-7.12,43.79-18.91,65.37-.91,1.66-1.84,3.36-2.79,5.13-15.17,28-19.72,58.18-11.86,78.82A2,2,0,0,1,16.79,200Z"/><path class="cls-1" d="M183.21,200a2,2,0,0,1-1.87-2.71c7.86-20.64,3.31-50.84-11.86-78.82-.95-1.77-1.88-3.47-2.79-5.13C154.9,91.76,147.78,78.73,147.78,48A112.17,112.17,0,0,1,158.63,1.08a2,2,0,0,1,3.56,1.84c-.11.2-10.41,20.48-10.41,45.05,0,29.74,6.93,42.43,18.42,63.46q1.37,2.47,2.8,5.13C189,146,193.46,176.69,185.08,198.71A2,2,0,0,1,183.21,200Z"/><path class="cls-1" d="M25.94,173.64A2,2,0,0,1,24,172c-2.41-14.81,6.55-29.4,6.94-30a2,2,0,0,1,3.39,2.12c-.08.14-8.55,13.95-6.38,27.25a2,2,0,0,1-1.65,2.3Z"/><path class="cls-1" d="M98.74,199.71c-3,0-6.7-.94-9-5.87l-.78-1.7a273.35,273.35,0,0,0-25.2-44.58C47.22,124.21,29.17,117.86,29,117.8A2,2,0,0,1,30.07,114c.34.08,33.83,7.55,69.93,7.55s68.71-8.91,69-9a2,2,0,0,1,1.7,3.55c-.25.18-25.16,18.24-41.73,38-10.86,13-16.74,27.67-20.25,36.46-2.63,6.6-3.52,8.83-5.73,8.83a12.89,12.89,0,0,0-1.35.14A22.32,22.32,0,0,1,98.74,199.71ZM42,120.3a98.1,98.1,0,0,1,25,25A277.42,277.42,0,0,1,92.6,190.47l.78,1.68c1.78,3.84,4.34,3.81,7.76,3.35.4-.05.78-.1,1.15-.13A64.66,64.66,0,0,0,105,189c3.6-9,9.62-24.11,20.9-37.55s26.09-25.9,34.93-32.91C148.46,121.27,125,125.5,100,125.5A360.14,360.14,0,0,1,42,120.3Z"/><circle class="cls-1" cx="100" cy="86.97" r="2"/><circle class="cls-1" cx="26.56" cy="181.08" r="2"/></svg>