<svg id="圖層_1" data-name="圖層 1" xmlns="http://www.w3.org/2000/svg" viewBox="0 0 200 200"><defs><style>.cls-1{fill:#ff883e;}</style></defs><path class="cls-1" d="M101.39,144.93c-18.13,0-27.75-4-28.16-4.2a2,2,0,0,1,1.58-3.68h0c.09,0,9.36,3.88,26.58,3.88,16.38,0,24-10.23,24-17.14,0-5.73-1.86-10.34-25.95-17.5-26.08-7.74-26.08-19-26.08-25.1a14.25,14.25,0,0,1,4.9-10.27c5.81-5.45,15.76-8.14,27.29-7.39a59.08,59.08,0,0,1,18.68,4,2,2,0,1,1-1.62,3.65,56.5,56.5,0,0,0-17.32-3.67C94.87,66.84,86,69.15,81,73.84a10.32,10.32,0,0,0-3.64,7.35c0,5.73,0,14.38,23.22,21.27C122.67,109,129.4,114,129.4,123.79,129.4,132.32,120.5,144.93,101.39,144.93Z"/><path class="cls-1" d="M100.71,162.25a2,2,0,0,1-2-2V50.46a2,2,0,1,1,4,0V160.25A2,2,0,0,1,100.71,162.25Z"/><path class="cls-1" d="M99.84,200A96.56,96.56,0,0,1,21.76,46.74,97.2,97.2,0,0,1,33.92,33a2,2,0,1,1,2.74,2.92A92.58,92.58,0,1,0,174.94,157.74a2,2,0,1,1,3.23,2.34A96.5,96.5,0,0,1,99.84,200Z"/><path class="cls-1" d="M189.8,135.27a2.3,2.3,0,0,1-.63-.1,2,2,0,0,1-1.26-2.53A92.67,92.67,0,0,0,54,23a2,2,0,1,1-2-3.47A96.66,96.66,0,0,1,191.7,133.9,2,2,0,0,1,189.8,135.27Z"/><path class="cls-1" d="M68.26,29.13a2,2,0,0,1-.58-.09L50.64,24a2,2,0,0,1-1.39-2.33l4.21-20a2,2,0,1,1,3.91.82L53.55,20.65l15.28,4.56a2,2,0,0,1,1.34,2.49A2,2,0,0,1,68.26,29.13Z"/><path class="cls-1" d="M182.71,176.19a2,2,0,0,1-2-1.7L178,156.08l-15.92,1.07a2,2,0,0,1-2.13-1.86,2,2,0,0,1,1.86-2.13l17.76-1.2a2,2,0,0,1,2.11,1.7l3,20.24a2,2,0,0,1-1.68,2.27A1.51,1.51,0,0,1,182.71,176.19Z"/></svg>