<svg id="圖層_1" data-name="圖層 1" xmlns="http://www.w3.org/2000/svg" viewBox="0 0 200 200"><defs><style>.cls-1{fill:#ff883e;}</style></defs><path class="cls-1" d="M100.14,157.68a2,2,0,0,1-1.45-.62c-3.21-3.37-7-6.92-11-10.67C76.55,135.93,65,125.11,63.4,115.82a20.49,20.49,0,0,1-.79-5.61,19.73,19.73,0,0,1,36.9-9.75,19.73,19.73,0,0,1,36.85,9.74,19.39,19.39,0,0,1-.78,5.61c-1,8-9.15,15.93-18.61,25.12a192.77,192.77,0,0,0-15.28,16,2,2,0,0,1-1.47.74ZM82.33,94.44a15.76,15.76,0,0,0-15.72,15.77,16.35,16.35,0,0,0,.66,4.6,1.89,1.89,0,0,1,0,.23c1.33,8,12.91,18.85,23.12,28.43,3.42,3.21,6.68,6.27,9.59,9.22,4.44-5.2,9.37-10,14.15-14.63,8.62-8.37,16.76-16.27,17.44-22.89a1.89,1.89,0,0,1,.11-.47l0-.06a15.37,15.37,0,0,0,.61-4.42,15.72,15.72,0,0,0-15.73-15.67h-.06a15.66,15.66,0,0,0-15,11.09,2,2,0,0,1-3.74.22,14.84,14.84,0,0,0-1.11-2,2.15,2.15,0,0,1-.14-.26,15.78,15.78,0,0,0-14.28-9.12Zm51.32,20.81h0Z"/><path class="cls-1" d="M170.85,200H27.26a2,2,0,0,1-2-2V97.56a2,2,0,0,1,4,0V196H168.85V97.56a2,2,0,1,1,4,0V198A2,2,0,0,1,170.85,200ZM198,107.84a2,2,0,0,1-1.45-.63L99.49,5l-96,101.51a2,2,0,1,1-2.9-2.75L98,.67A2,2,0,0,1,99.49,0h0a2,2,0,0,1,1.45.63l98.51,103.79a2,2,0,0,1-.07,2.83A2,2,0,0,1,198,107.84Z"/></svg>