<svg xmlns="http://www.w3.org/2000/svg" viewBox="0 0 345 59" id="logo"><path fill="#fff" d="M151.435 48.371l2.268 5.672 2.311-5.672h1.451l-3.375 7.925c-.372.863-.84 1.496-1.4 1.897-.56.401-1.25.67-2.074.807l-.317-1.134c.68-.155 1.195-.356 1.545-.604.35-.246.627-.619.84-1.111l.257-.61-3.042-7.17h1.536zm-6.016 5.584v1.192c0 .455-.076.869-.231 1.244-.153.372-.41.742-.775 1.11l-.617-.508c.403-.445.632-.878.689-1.294h-.789v-1.744h1.723zm106.013-7.923v2.34h1.996v1.134h-1.996v3.679c0 .503.108.86.322 1.067.217.21.515.315.9.315.247 0 .5-.042.76-.118v1.192a3.36 3.36 0 01-1.08.161c-.745 0-1.323-.213-1.734-.64-.413-.425-.62-1.048-.62-1.861v-3.795h-1.405v-1.134h1.406v-1.831l1.45-.509zm-134.713 0v2.34h1.997v1.134h-1.997v3.679c0 .503.109.86.323 1.067.217.21.515.315.9.315.246 0 .5-.042.76-.118v1.192a3.36 3.36 0 01-1.08.161c-.745 0-1.324-.213-1.734-.64-.413-.425-.62-1.048-.62-1.861v-3.795h-1.405v-1.134h1.406v-1.831l1.45-.509zm121.062 2.167c.974 0 1.743.318 2.303.958.56.641.84 1.527.84 2.66v.247h-5.168c.047 1.717.817 2.576 2.31 2.576.834 0 1.595-.278 2.283-.83l.446 1.047c-.327.29-.74.52-1.243.689a4.643 4.643 0 01-1.514.256c-1.158 0-2.068-.337-2.728-1.011-.66-.673-.989-1.598-.989-2.77 0-.746.145-1.41.436-1.991a3.22 3.22 0 011.228-1.351c.527-.32 1.126-.48 1.796-.48zm-127.238 0c.517 0 1.007.08 1.473.246.462.165.859.397 1.183.697l-.445 1.032c-.699-.56-1.434-.842-2.211-.842-.468 0-.832.09-1.091.27a.857.857 0 00-.388.746c0 .253.083.458.247.613.161.153.42.275.774.364l1.235.304c.688.155 1.199.4 1.528.732.331.336.494.77.494 1.302 0 .66-.26 1.181-.782 1.564-.52.383-1.23.575-2.131.575-1.263 0-2.258-.31-2.986-.93l.43-1.062a4.152 4.152 0 002.599.873c.498 0 .876-.085 1.136-.255a.815.815 0 00.386-.72c0-.262-.088-.467-.266-.618-.178-.151-.476-.28-.897-.385l-1.205-.292c-.634-.134-1.114-.374-1.443-.718-.331-.345-.495-.774-.495-1.287 0-.66.26-1.194.781-1.6.521-.407 1.214-.61 2.074-.61zm71.156 0c.507 0 .996.084 1.466.254.467.17.845.4 1.134.689l-.446 1.064c-.678-.545-1.363-.816-2.053-.816-.7 0-1.243.23-1.637.69-.393.46-.589 1.108-.589 1.94 0 .834.196 1.477.589 1.928.394.45.938.675 1.637.675.709 0 1.393-.271 2.053-.813l.446 1.061c-.307.292-.697.517-1.171.683a4.461 4.461 0 01-1.486.248c-.727 0-1.36-.157-1.902-.465-.54-.31-.956-.75-1.243-1.316-.286-.567-.429-1.23-.429-1.984 0-.758.15-1.426.452-2.007.3-.582.725-1.033 1.27-1.351.544-.321 1.182-.48 1.91-.48zm-42.467 0c.975 0 1.743.318 2.303.958.56.641.84 1.527.84 2.66v.247h-5.168c.047 1.717.818 2.576 2.312 2.576.833 0 1.593-.278 2.282-.83l.445 1.047c-.327.29-.74.52-1.242.689a4.647 4.647 0 01-1.514.256c-1.159 0-2.068-.337-2.728-1.011-.66-.673-.989-1.598-.989-2.77 0-.746.145-1.41.435-1.991a3.226 3.226 0 011.228-1.351c.528-.32 1.126-.48 1.796-.48zm-38.208.173v4.479c0 .6.125 1.043.368 1.328.243.288.615.43 1.111.43.595 0 1.071-.194 1.429-.58.36-.388.54-.903.54-1.542v-4.115h1.45V55.7h-1.408v-1.223a2.424 2.424 0 01-.946.983 2.722 2.722 0 01-1.365.341c-1.743 0-2.613-.978-2.613-2.936v-4.493h1.434zm66.906 0v4.479c0 .6.125 1.043.368 1.328.243.288.615.43 1.111.43.595 0 1.071-.194 1.429-.58.36-.388.54-.903.54-1.542v-4.115h1.45V55.7h-1.408v-1.223a2.424 2.424 0 01-.946.983 2.722 2.722 0 01-1.365.341c-1.743 0-2.613-.978-2.613-2.936v-4.493h1.434zm20.373-.174c.554 0 1.04.118 1.451.356.41.238.725.575.948 1.01v-1.192h1.435V55.7h-1.435v-1.252a2.241 2.241 0 01-.94 1.004c-.417.234-.905.35-1.459.35-.641 0-1.203-.156-1.686-.466-.484-.31-.86-.75-1.128-1.316-.267-.567-.4-1.229-.4-1.984 0-.757.135-1.426.409-2.007.271-.582.651-1.033 1.14-1.351a2.958 2.958 0 011.665-.48zm33.267 0c.553 0 1.04.118 1.45.356.411.238.726.575.949 1.01v-1.192h1.434V55.7h-1.434v-1.252a2.252 2.252 0 01-.94 1.004c-.417.234-.906.35-1.46.35-.64 0-1.203-.156-1.685-.466-.484-.31-.86-.75-1.128-1.316-.268-.567-.4-1.229-.4-1.984 0-.757.134-1.426.408-2.007.272-.582.652-1.033 1.14-1.351a2.961 2.961 0 011.666-.48zm-60.114 0c.699 0 1.314.154 1.851.465.536.31.95.753 1.243 1.33.292.577.437 1.248.437 2.013 0 .766-.145 1.436-.437 2.007a3.151 3.151 0 01-1.243 1.322c-.537.31-1.152.466-1.85.466-.71 0-1.333-.155-1.869-.466-.535-.31-.95-.75-1.242-1.322-.29-.57-.435-1.241-.435-2.007 0-.765.145-1.436.435-2.013a3.135 3.135 0 011.242-1.33c.536-.31 1.159-.466 1.868-.466zm-67.048-2.85v1.25h-3.46V55.7h-1.493v-9.102h-3.462v-1.25h8.415zm163.556 8.608V55.7h-1.722v-1.744h1.722zM247.57 48.37v7.33h-1.437v-7.33h1.437zM228.82 45v6.687l3.216-3.3h1.795l-3.46 3.517 3.76 3.795h-1.851l-3.46-3.46v3.46h-1.436V45h1.436zm-30.854 3.198c1.733 0 2.597.979 2.597 2.936v4.564h-1.449v-4.477c0-.64-.122-1.105-.366-1.395-.243-.291-.635-.436-1.17-.436-.613 0-1.102.194-1.472.581-.37.387-.553.907-.553 1.556v4.171h-1.437v-5.261c0-.766-.037-1.455-.112-2.065h1.348l.13 1.264c.228-.463.563-.821.996-1.068.436-.246.932-.37 1.488-.37zm-99.986 0c.223 0 .452.033.691.102l-.03 1.336a2.431 2.431 0 00-.846-.145c-.66 0-1.155.203-1.486.604-.329.402-.495.909-.495 1.52v4.083h-1.438v-5.261c0-.766-.037-1.455-.112-2.065h1.348l.129 1.324c.192-.486.49-.856.89-1.113a2.458 2.458 0 011.35-.385zm33.87 0c1.606 0 2.411.979 2.411 2.936v4.564h-1.449v-4.491c0-.63-.108-1.09-.324-1.38-.215-.292-.562-.437-1.04-.437-.556 0-.996.194-1.314.581-.321.387-.48.917-.48 1.585v4.142h-1.451v-4.491c0-.63-.109-1.09-.323-1.38-.217-.292-.564-.437-1.04-.437-.558 0-.995.194-1.322.581-.327.387-.489.917-.489 1.585v4.142h-1.436v-5.261c0-.766-.039-1.455-.115-2.065h1.349l.13 1.22c.21-.444.514-.79.904-1.032.394-.24.852-.362 1.38-.362 1.119 0 1.85.47 2.196 1.411.22-.436.543-.782.968-1.032a2.779 2.779 0 011.445-.379zm82.585 0c1.606 0 2.41.979 2.41 2.936v4.564h-1.448v-4.491c0-.63-.108-1.09-.325-1.38-.215-.292-.562-.437-1.04-.437-.556 0-.995.194-1.314.581-.32.387-.48.917-.48 1.585v4.142h-1.45v-4.491c0-.63-.11-1.09-.324-1.38-.216-.292-.564-.437-1.04-.437-.558 0-.995.194-1.322.581-.327.387-.488.917-.488 1.585v4.142h-1.437v-5.261c0-.766-.039-1.455-.114-2.065h1.348l.131 1.22c.209-.444.513-.79.903-1.032.395-.24.853-.362 1.38-.362 1.12 0 1.851.47 2.196 1.411.221-.436.544-.782.969-1.032a2.776 2.776 0 011.445-.379zm7.465 1.177c-.65 0-1.16.236-1.53.706-.369.47-.554 1.121-.554 1.955 0 .823.185 1.463.553 1.918.37.457.885.685 1.545.685.65 0 1.155-.23 1.514-.691.36-.462.54-1.107.54-1.941 0-.844-.18-1.492-.54-1.947-.36-.457-.868-.685-1.528-.685zm-60.445 0c-.66 0-1.173.229-1.537.684-.363.455-.547 1.105-.547 1.947 0 .863.18 1.517.54 1.964.359.445.87.668 1.53.668.668 0 1.18-.223 1.534-.668.356-.447.534-1.101.534-1.964 0-.842-.18-1.492-.54-1.947-.36-.455-.864-.685-1.514-.685zm27.178 0c-.65 0-1.16.236-1.53.706-.368.47-.554 1.121-.554 1.955 0 .823.186 1.463.554 1.918.37.457.884.685 1.544.685.65 0 1.155-.23 1.515-.691.36-.462.54-1.107.54-1.941 0-.844-.18-1.492-.54-1.947-.36-.457-.869-.685-1.529-.685zm69.36-4.026l-.446 7.457h-.891l-.458-7.457h1.794zm-118.733 3.94c-.546 0-.991.164-1.336.493-.346.33-.564.8-.66 1.41h3.833c-.057-.62-.243-1.092-.56-1.417-.317-.324-.742-.486-1.277-.486zm98.548 0c-.545 0-.99.164-1.336.493-.345.33-.564.8-.66 1.41h3.833c-.057-.62-.243-1.092-.56-1.417-.316-.324-.741-.486-1.277-.486zm9.875-4.114v1.541h-1.677v-1.541h1.677zM154.69 3.986c8.76 0 16.823 5.893 17.908 13.521h-31.236c-.268 1.175-.432 2.274-.432 3.546 0 8.347 6.152 15.111 13.76 15.111 5.599 0 10.421-3.676 12.562-8.955h4.514C169.105 33.528 162.461 38 154.69 38c-10.136 0-18.34-7.594-18.34-16.947 0-9.363 8.204-17.067 18.34-17.067zM132.011 0v37.243h-4.544v-5.13c-3.356 3.527-8.277 5.748-13.76 5.748-10.124 0-18.324-7.576-18.324-16.93 0-9.357 8.2-16.931 18.325-16.931 5.482 0 10.403 2.221 13.76 5.752V0h4.543zM72.737 3.987c10.115 0 18.312 7.585 18.312 16.93l-.011 16.136v.175h-4.544v-5.131c-3.354 3.539-8.275 5.763-13.757 5.763-10.128 0-18.325-7.588-18.325-16.943 0-9.345 8.197-16.93 18.325-16.93zm183.948-.025c10.12 0 18.322 7.583 18.322 16.935 0 9.35-8.201 16.933-18.322 16.933-10.118 0-18.32-7.583-18.32-16.933 0-9.352 8.202-16.935 18.32-16.935zm36.115.18c.695-.022 2.663-.003 3 0h.05v1.811s-2.369-.004-3.16.03c-4.925.221-8.868 4.718-8.868 10.575v20.741h-4.569V17.522c0-3.986 1.768-7.564 4.569-10.016a13.542 13.542 0 012.177-1.553c2-1.15 4.27-1.724 6.801-1.81zm-278.413.042c4.656 0 8.748 2.267 11.146 5.697 2.4-3.43 6.493-5.697 11.147-5.697 7.004 0 12.754 5.108 13.341 11.624.034.365.055.73.055 1.106v20.358h-4.542V16.914c0-6.04-3.966-10.938-8.852-10.938-4.887 0-8.853 4.899-8.853 10.938v20.358h-4.59V16.914c0-6.04-3.965-10.938-8.852-10.938-4.886 0-8.852 4.899-8.852 10.938v20.358H.993V16.914c0-.377.023-.741.055-1.106.587-6.516 6.337-11.624 13.337-11.624zm294.92 0c4.653 0 8.747 2.266 11.146 5.696 2.398-3.43 6.49-5.697 11.146-5.697 7.004 0 12.752 5.11 13.34 11.624.033.365.054.73.054 1.106v20.358h-4.542V16.913c0-6.039-3.963-10.937-8.85-10.937-4.889 0-8.855 4.898-8.855 10.937v20.358h-4.59V16.913c0-6.039-3.965-10.937-8.85-10.937-4.886 0-8.854 4.898-8.854 10.937v20.358h-4.542V16.913c0-.376.023-.741.055-1.106.587-6.513 6.337-11.624 13.34-11.624zM231.495.078c1.2-.06 3.329-.032 3.649-.028l.04.001v1.81s-2.846-.013-3.785.044c-5.14.312-8.845 4.705-8.845 10.561 0 .338-.028.67 0 1h12.63v1.988h-12.63V37.23h-4.57V15.455h-4.568v-1.989h4.569v-.034c0-3.989 1.766-7.565 4.569-10.016a13.525 13.525 0 012.175-1.553c1.999-1.15 4.21-1.651 6.766-1.784zm-38.437 3.907c4.896 0 9.302 1.906 12.405 4.953 2.846 2.794 4.59 6.55 4.59 10.68v17.578h-4.59V19.411c0-7.544-5.563-13.66-12.426-13.66-6.862 0-12.423 6.116-12.423 13.66v17.786h-4.55V19.619c0-4.112 1.726-7.852 4.55-10.644 3.102-3.067 7.53-4.99 12.444-4.99zm-79.35 1.85c-7.598 0-13.748 6.757-13.748 15.095 0 8.337 6.15 15.095 13.749 15.095 7.589 0 13.75-6.758 13.75-15.095 0-8.338-6.161-15.095-13.75-15.095zm-40.971-.013c-7.599 0-13.749 6.757-13.749 15.094 0 8.338 6.15 15.095 13.749 15.095 7.587 0 13.748-6.757 13.748-15.095 0-8.337-6.161-15.094-13.748-15.094zm183.948-.025c-7.591 0-13.75 6.762-13.75 15.1 0 8.337 6.159 15.096 13.75 15.096 7.594 0 13.75-6.76 13.75-15.097s-6.156-15.1-13.75-15.1zm-101.996.026c-5.766 0-10.668 4.144-12.717 9.658h25.646c-1.517-5.603-7.174-9.658-12.929-9.658z" fill-rule="evenodd"></path></svg>