<svg id="圖層_1" data-name="圖層 1" xmlns="http://www.w3.org/2000/svg" viewBox="0 0 395.18 181.98"><defs><style>.cls-1{fill:#fff;}</style></defs><title>logo</title><path class="cls-1" d="M193.44,393.77c-5.69,1-25.77,8.5-20.53-3.82,2.82-6.64,9.36-10.2,9.22-18.06-.09-5.14-4.66-8.08-9.43-7.18-5.44,1-10.3,3.5-15.13,6.12-6.6,3.57-13.68,6.3-20.47,9.51-4.37,2.06-8.68,4.22-13,6.39C135.46,370,147.47,353.64,159,337c5.46-7.88,14.55-20.79,12-31.24-2.55-10.63-11.66-12.87-21.71-11.91-6.56.63-6.82,10.35,0,10.4,3.83,0,10.64-.15,9.61,5.41-.73,4-2.7,7.73-4.65,11.18C149,330.18,142,338.63,135.75,347.3c-13.12,18.08-26.41,36-38.46,54.85-3.32,5.19,2.14,12.19,8,10.38,11.73-3.64,22.83-11.61,33.94-16.93q9.36-4.48,18.86-8.64c-1.72,5.84-1.92,11.54,1.27,17,8.12,13.75,28.24,7.17,39.32,2.22C206.1,402.79,200.45,392.49,193.44,393.77Z" transform="translate(-96.28 -293.65)"/><path class="cls-1" d="M225.75,382.22l-.16-.17a7.91,7.91,0,0,0-3.48-2,6.65,6.65,0,0,0-8.18,8.18,6.81,6.81,0,0,0,2.46,3.62,13.14,13.14,0,0,0,1.68,1.39,6.48,6.48,0,0,0,5.2.68,6.73,6.73,0,0,0,2.49-11.7Z" transform="translate(-96.28 -293.65)"/><path class="cls-1" d="M344.66,418a9.55,9.55,0,0,1-4.87,8.47q-5.19,3-20.13-.58l.21-8.77q12,3.47,14.63,1.45a3.44,3.44,0,0,0,1-2.79v-26.1h-30.2v-7.23h30.2v-6.26H301.22v8.09q-.22,24.95-7.84,41.7l-8.59-2.7a88.31,88.31,0,0,0,6.15-19.93,148.26,148.26,0,0,0,1.49-21.48V343.73c0-1.41.77-2.11,2.33-2.11H332.9v-5.78h9.22v5.78h41.32v7.22H344.66v6.64h31.05q2.65,0,2.65,2.41V369h7.84v7.22h-7.84v11.08c0,1.61-.85,2.41-2.55,2.41l4.87,5.49a87.26,87.26,0,0,1-15.36,10.69l-5.2-6.55a127.46,127.46,0,0,0,14.21-9.63H346.14A58,58,0,0,0,359,405.37q9.21,8,27,12.72l-5.3,7.22q-14.62-5.1-22-10.4a57.32,57.32,0,0,1-14-13.39Zm-11.87-9.34q-10.17,6.74-28.61,13.67l-4.87-6.84q18.86-6.55,28.08-13.2Zm2.65-59.81H302.27c-.7,0-1.05.32-1.05,1V369h34.23v-6.26H306.09v-7.22h29.36ZM309.7,389.68a80,80,0,0,1,12.5,10.3l-6.46,5.3a70.41,70.41,0,0,0-12.08-9.92Zm35-20.71h24.91v-5.58a.76.76,0,0,0-.85-.68H344.66Zm0,13.48h24.06c.56-.06.85-.32.85-.77v-5.49H344.66Z" transform="translate(-96.28 -293.65)"/><path class="cls-1" d="M487.92,425.31H401c-1.48,0-2.23-.71-2.23-2.12V340.75c0-1.35.75-2,2.23-2h86.89c1.55,0,2.33.68,2.33,2v82.44C490.26,424.6,489.48,425.31,487.92,425.31Zm-47.36-63.66v-4.34H415.34v-6.46h25.22v-4.52H407.92c-.28,0-.38.13-.32.38v70.5c-.06.26,0,.42.32.48H481a.47.47,0,0,0,.42-.48v-70.5c0-.25-.14-.38-.42-.38H448.93v4.52h25.43v6.46H448.93v4.34h28.4v6.45H412v-6.45Zm-1,30.72v22.54h-8.37v-15.6a74.64,74.64,0,0,1-15.47,12.13L409.41,406a76.92,76.92,0,0,0,19-13.58h-10.7c-.71-.06-1.06-.42-1.06-1.06V373.4c0-.64.35-1,1.06-1h53.19c.78,0,1.17.32,1.17,1v17.91a1.06,1.06,0,0,1-1.17,1.06H451.15q6.46,14.26,26.49,17.24L473,416.45q-23.85-5.59-29.88-24.08Zm-14.73-13.49c-.29,0-.38.1-.31.29v6.36c-.07.2,0,.33.31.39h38.79q.43-.09.43-.39v-6.36c0-.19-.14-.29-.43-.29Zm54.36,17.82a76.6,76.6,0,0,1-12,7.8L463,398.73a75.51,75.51,0,0,0,11.65-7.52Z" transform="translate(-96.28 -293.65)"/><path class="cls-1" d="M284.79,439.89h5.78v6.55h6.31v-6.55h5.81v18.71h-5.81V451h-6.31v7.57h-5.78Z" transform="translate(-96.28 -293.65)"/><path class="cls-1" d="M306.53,439.89H322v4h-9.7v3h9v3.82h-9v3.69h10v4.24H306.53Z" transform="translate(-96.28 -293.65)"/><path class="cls-1" d="M336.92,455.52h-6.55l-.92,3.09h-5.9l7-18.71h6.31l7,18.71h-6.06Zm-1.2-4-2.06-6.73-2,6.73Z" transform="translate(-96.28 -293.65)"/><path class="cls-1" d="M342.47,439.89h6l4.21,13.47,4.16-13.47h5.87l-7,18.71h-6.27Z" transform="translate(-96.28 -293.65)"/><path class="cls-1" d="M364.63,439.89h15.5v4h-9.7v3h9v3.82h-9v3.69h10v4.24H364.63Z" transform="translate(-96.28 -293.65)"/><path class="cls-1" d="M383.56,439.89H389l7,10.35V439.89h5.45v18.71H396l-7-10.28v10.28h-5.44Z" transform="translate(-96.28 -293.65)"/><path class="cls-1" d="M413.29,449.26a8.86,8.86,0,0,1,9.66-9.69c3.11,0,5.52.84,7.2,2.51a9.44,9.44,0,0,1,2.53,7,11.44,11.44,0,0,1-1.11,5.38,7.82,7.82,0,0,1-3.19,3.27,10.51,10.51,0,0,1-5.2,1.16,12.07,12.07,0,0,1-5.25-1,8,8,0,0,1-3.36-3.19A10.56,10.56,0,0,1,413.29,449.26Zm5.78,0a6.27,6.27,0,0,0,1,4.07,4,4,0,0,0,5.76,0c.68-.81,1-2.26,1-4.35a5.79,5.79,0,0,0-1.07-3.86,3.64,3.64,0,0,0-2.89-1.22,3.49,3.49,0,0,0-2.81,1.24A6.28,6.28,0,0,0,419.07,449.29Z" transform="translate(-96.28 -293.65)"/><path class="cls-1" d="M435.83,439.89h5.4l7,10.35V439.89h5.46v18.71h-5.46l-7-10.28v10.28h-5.44Z" transform="translate(-96.28 -293.65)"/><path class="cls-1" d="M457.57,439.89h5.79V454h9v4.61H457.57Z" transform="translate(-96.28 -293.65)"/><path class="cls-1" d="M471.1,439.89h6.42l3.77,6.31,3.78-6.31h6.38l-7.27,10.88v7.83h-5.8v-7.83Z" transform="translate(-96.28 -293.65)"/><path class="cls-1" d="M196,321.61a77,77,0,1,0,77,77A77,77,0,0,0,196,321.61Zm0,140.69a63.68,63.68,0,1,1,63.68-63.68A63.68,63.68,0,0,1,196,462.3Z" transform="translate(-96.28 -293.65)"/></svg>