<svg id="圖層_1" data-name="圖層 1" xmlns="http://www.w3.org/2000/svg" viewBox="0 0 176.78 181.98"><defs><style>.cls-1{fill:#fff;}</style></defs><title>logos</title><path class="cls-1" d="M193.44,393.77c-5.69,1-25.77,8.5-20.53-3.82,2.82-6.64,9.36-10.2,9.22-18.06-.09-5.14-4.66-8.08-9.43-7.18-5.44,1-10.3,3.5-15.13,6.12-6.6,3.57-13.68,6.3-20.47,9.51-4.37,2.06-8.68,4.22-13,6.39C135.46,370,147.47,353.64,159,337c5.46-7.88,14.55-20.79,12-31.24-2.55-10.63-11.66-12.87-21.71-11.91-6.56.63-6.82,10.35,0,10.4,3.83,0,10.64-.15,9.61,5.41-.73,4-2.7,7.73-4.65,11.18C149,330.18,142,338.63,135.75,347.3c-13.12,18.08-26.41,36-38.46,54.85-3.32,5.19,2.14,12.19,8,10.38,11.73-3.64,22.83-11.61,33.94-16.93q9.36-4.48,18.86-8.64c-1.72,5.84-1.92,11.54,1.27,17,8.12,13.75,28.24,7.17,39.32,2.22C206.1,402.79,200.45,392.49,193.44,393.77Z" transform="translate(-96.28 -293.65)"/><path class="cls-1" d="M225.75,382.22l-.16-.17a7.91,7.91,0,0,0-3.48-2,6.65,6.65,0,0,0-8.18,8.18,6.81,6.81,0,0,0,2.46,3.62,13.14,13.14,0,0,0,1.68,1.39,6.48,6.48,0,0,0,5.2.68,6.73,6.73,0,0,0,2.49-11.7Z" transform="translate(-96.28 -293.65)"/><path class="cls-1" d="M196,321.61a77,77,0,1,0,77,77A77,77,0,0,0,196,321.61Zm0,140.69a63.68,63.68,0,1,1,63.68-63.68A63.68,63.68,0,0,1,196,462.3Z" transform="translate(-96.28 -293.65)"/></svg>